#!OML:ASF F:\VICON\USERDATA\INSTALL\Justin_Nancy\Justin_Nancy.ASF
:FULLY-SPECIFIED
:DEGREES
326
root -7.5872 17.6365 11.063 -3.50797 62.4976 -9.43944
lowerback 9.09278 0.869162 4.21446
upperback 0.242505 1.81359 3.28502
thorax -4.83311 0.858278 0.815197
lowerneck -16.257 -3.77628 -10.0014
upperneck 22.5241 -3.14649 3.05819
head 10.102 -1.89246 2.33132
rclavicle -1.87852e-014 4.77083e-014
rhumerus -30.4233 -7.15975 -76.0776
rradius 31.3158
rwrist 4.89949
rhand -16.971 11.937
rfingers 7.12502
rthumb 9.26336 -17.8395
lclavicle -1.87852e-014 4.77083e-014
lhumerus -29.121 13.6464 84.5415
lradius 26.8255
lwrist -6.48438
lhand -22.6224 29.0171
lfingers 7.12502
lthumb 3.80778 58.9628
rfemur 0.234564 -1.86112 24.1726
rtibia 19.3403
rfoot -8.45234 -18.7858
rtoes -14.9647
lfemur -33.0497 8.09124 -18.9697
ltibia 37.781
lfoot -13.6944 5.14057
ltoes -5.64957
327
root -7.53244 17.6334 11.1708 -7.105 63.1374 -12.9243
lowerback 9.53261 0.967074 5.34586
upperback 0.309107 2.12841 3.66132
thorax -4.98304 0.995716 0.527204
lowerneck -16.231 -3.80389 -9.90428
upperneck 22.7598 -3.28193 3.34563
head 10.1924 -1.91504 2.40227
rclavicle -1.27222e-014 7.15625e-015
rhumerus -30.5082 -6.94362 -76.1609
rradius 31.4037
rwrist 4.72357
rhand -16.7949 11.0409
rfingers 7.12502
rthumb 9.43326 -18.728
lclavicle -1.27222e-014 7.15625e-015
lhumerus -29.4966 13.4883 84.0763
lradius 26.7957
lwrist -6.32895
lhand -21.9432 27.8798
lfingers 7.12502
lthumb 4.4636 57.8128
rfemur 1.21177 -1.44114 26.2347
rtibia 19.1946
rfoot -8.48203 -19.7721
rtoes -14.7757
lfemur -32.8576 8.88137 -17.6837
ltibia 36.271
lfoot -13.4909 5.36238
ltoes -1.99435
328
root -7.46452 17.6199 11.2371 -8.86428 63.9714 -15.0204
lowerback 9.36863 1.03019 6.17247
upperback 0.256123 2.31015 3.85703
thorax -4.9202 1.07276 0.250961
lowerneck -16.1298 -3.79755 -9.62856
upperneck 22.6707 -3.32329 3.21501
head 10.1353 -1.9234 2.30468
rclavicle 1.89839e-014 2.70347e-014
rhumerus -30.3344 -7.0405 -75.9213
rradius 31.2238
rwrist 5.01773
rhand -16.6989 10.5306
rfingers 7.12502
rthumb 9.5259 -19.234
lclavicle 1.89839e-014 2.70347e-014
lhumerus -29.7752 13.2443 83.8743
lradius 26.7282
lwrist -5.85887
lhand -20.4155 25.3462
lfingers 7.12502
lthumb 5.93864 55.243
rfemur 1.89108 -2.09015 27.2183
rtibia 18.1575
rfoot -7.81848 -19.8701
rtoes -15.6059
lfemur -33.6574 10.0768 -17.8362
ltibia 35.2049
lfoot -13.0269 6.02593
ltoes -3.88381
329
root -7.38897 17.6072 11.2504 -5.33474 65.394 -12.08
lowerback 8.615 1.03839 5.24931
upperback -0.00413845 2.13956 3.45023
thorax -4.7896 0.998877 0.376554
lowerneck -16.2902 -3.71276 -9.58138
upperneck 22.7371 -3.17011 3.10889
head 10.1762 -1.8599 2.27966
rclavicle -1.56046e-014 -2.38542e-014
rhumerus -30.0727 -7.04797 -75.6525
rradius 30.9751
rwrist 5.18104
rhand -17.1027 10.6286
rfingers 7.12502
rthumb 9.13629 -19.1536
lclavicle -1.56046e-014 -2.38542e-014
lhumerus -29.8875 16.1177 82.9922
lradius 25.9732
lwrist -8.2901
lhand -19.3918 23.8418
lfingers 7.12502
lthumb 6.92692 53.7085
rfemur 2.02663 -3.59485 25.4508
rtibia 16.9345
rfoot -7.52094 -19.0847
rtoes -15.5416
lfemur -35.1737 10.7615 -20.958
ltibia 34.0922
lfoot -12.4406 7.05537
ltoes -8.32778
330
root -7.33135 17.5807 11.3899 -11.3293 65.7245 -17.7792
lowerback 9.14352 1.02869 6.35188
upperback 0.274369 2.351 4.39892
thorax -4.79163 1.10651 0.717764
lowerneck -16.4133 -3.58858 -9.50299
upperneck 22.7891 -3.0012 3.10428
head 10.2041 -1.77499 2.28837
rclavicle 4.77083e-015 4.45278e-014
rhumerus -29.8828 -6.33466 -75.831
rradius 30.8833
rwrist 3.73047
rhand -18.4898 10.7371
rfingers 7.12502
rthumb 7.79759 -19.0991
lclavicle 4.77083e-015 4.45278e-014
lhumerus -30.1792 19.5488 81.6927
lradius 25.193
lwrist -11.5362
lhand -18.2301 22.8348
lfingers 7.12502
lthumb 8.04826 52.6615
rfemur 3.69131 -2.41566 28.5542
rtibia 16.2891
rfoot -7.48462 -20.6955
rtoes -14.675
lfemur -34.8447 11.3493 -18.6675
ltibia 33.0421
lfoot -12.2936 7.37102
ltoes -5.90404
331
root -7.25688 17.5776 11.492 -13.2325 66.4985 -19.411
lowerback 9.29011 1.07847 6.23924
upperback 0.359175 2.43205 4.60138
thorax -4.79654 1.15584 0.978929
lowerneck -16.356 -3.53433 -9.12897
upperneck 22.7809 -3.0239 3.07048
head 10.182 -1.75602 2.21206
rclavicle 1.08338e-014 3.4191e-014
rhumerus -29.8202 -6.02711 -75.97
rradius 30.8033
rwrist 2.96625
rhand -19.0877 10.324
rfingers 7.12502
rthumb 7.22045 -19.5328
lclavicle 1.08338e-014 3.4191e-014
lhumerus -30.7082 18.9057 81.5185
lradius 25.4754
lwrist -10.9995
lhand -17.5919 22.6963
lfingers 7.12502
lthumb 8.66416 52.4985
rfemur 4.97438 -2.3568 29.4283
rtibia 15.4966
rfoot -7.38803 -21.3937
rtoes -14.6241
lfemur -34.647 11.5943 -18.4955
ltibia 31.8331
lfoot -12.3992 7.42834
ltoes -3.13325
332
root -7.19096 17.5648 11.4543 -12.9716 66.92 -19.8929
lowerback 9.25018 1.20773 7.48498
upperback -0.035643 2.73673 4.22498
thorax -5.10897 1.25382 -0.145963
lowerneck -16.2208 -3.53443 -8.79471
upperneck 22.6113 -3.13343 3.0844
head 10.0944 -1.77424 2.14632
rclavicle 6.07287e-014 -4.77083e-015
rhumerus -29.7066 -6.53726 -75.7329
rradius 30.518
rwrist 4.58285
rhand -17.938 10.1586
rfingers 7.12502
rthumb 8.33012 -19.6572
lclavicle 6.07287e-014 -4.77083e-015
lhumerus -31.2519 16.8653 81.6057
lradius 26.0185
lwrist -8.97738
lhand -17.6369 23.5029
lfingers 7.12502
lthumb 8.6208 53.3069
rfemur 5.09183 -3.88551 28.9677
rtibia 13.7469
rfoot -6.2921 -19.7179
rtoes -15.7442
lfemur -36.0051 10.4706 -19.0571
ltibia 31.0412
lfoot -12.3941 9.54186
ltoes -3.06918
